<svg width="20" height="19" viewBox="0 0 20 19" fill="none" xmlns="http://www.w3.org/2000/svg">
<path d="M15.5398 15.9664L15.1827 15.0695C15.0021 14.6145 14.7215 14.2064 14.3624 13.8737L14.2971 13.8136C13.7318 13.2891 12.9891 12.9973 12.2177 12.9973H7.10197C6.33063 12.9973 5.58785 13.2891 5.02159 13.8125L4.95629 13.8737C4.59715 14.2064 4.31759 14.6145 4.13597 15.0695L3.77887 15.9664" stroke="white" stroke-width="1.77404" stroke-linecap="round" stroke-linejoin="round"/>
<path d="M12.1848 2.81998C13.5793 4.21456 13.5793 6.47561 12.1848 7.87019C10.7902 9.26477 8.52914 9.26477 7.13456 7.87019C5.73998 6.47561 5.73998 4.21456 7.13456 2.81998C8.52914 1.4254 10.7902 1.4254 12.1848 2.81998" stroke="white" stroke-width="1.77404" stroke-linecap="round" stroke-linejoin="round"/>
</svg>
